<svg width="48" height="48" xmlns="http://www.w3.org/2000/svg">

 <g>
  <title>background</title>
  <rect fill="none" id="canvas_background" height="402" width="582" y="-1" x="-1"/>
 </g>
 <g>
  <title>Layer 1</title>
  <path fill-rule="evenodd" fill="#6722f9" id="svg_1" d="m36.214,28.786a7,7 0 1 1 -12.428,0l-5.02,-5.02a6.925,6.925 0 0 1 -5.612,-0.921l-6.154,6.155l-3,-3l6.477,-6.477a7,7 0 1 1 11.947,1.9l4.363,4.363a6.965,6.965 0 0 1 6.428,0l8.785,-8.786l3,3l-8.786,8.786z" class="vi-primary"/>
  <path fill="#000000" fill-rule="evenodd" id="svg_2" d="m17,14a3,3 0 1 1 -3,3a3,3 0 0 1 3,-3zm13,15a3,3 0 1 1 -3,3a3,3 0 0 1 3,-3z" class="vi-accent"/>
  <ellipse stroke="null" ry="6.98708" rx="6.98708" id="svg_5" cy="31.991727" cx="29.977387" stroke-opacity="null" stroke-width="null" fill="#ff147a"/>
  <rect stroke="null" transform="rotate(-44.70486068725586 38.74152755737304,23.348743438720696) " id="svg_7" height="4.331862" width="13.568363" y="21.182812" x="31.957345" stroke-opacity="null" stroke-width="null" fill="#ff147a"/>
  <rect stroke="null" transform="rotate(-134.34490966796875 24.30314064025879,26.25586318969727) " id="svg_9" height="4.212824" width="2.810773" y="24.149451" x="22.897754" stroke-opacity="null" stroke-width="null" fill="#ff147a"/>
  <ellipse stroke="null" ry="2.786755" rx="2.827142" id="svg_10" cy="31.910951" cx="29.856223" stroke-opacity="null" stroke-width="null" fill="#000000"/>
 </g>
</svg>